PathFileType	4	(X/Y/Z)	E:\Studenten\Marcel_BSc\Ayumi_25_09_2024\25-09-2024\sumo_dl_80kg.trc
DataRate	CameraRate	NumFrames	NumMarkers	Units	OrigDataRate	OrigDataStartFrame	OrigNumFrames
200.0	200.0	6	52	mm	200.0	1414	2827	
Frame#	Time	RSACR			LSACR			USACR			LBAR			RBAR			RHEE			RMT1			RMT5			RMT2			LHEE			LMT1			LMT5			LMT2			LMMAL			LLMAL			LTIB4			LTIB2			LTIB3			LTIB1			RMMAL			RLMAL			RTIB1			RTIB2			RTIB3			RTHI1			RTHI4			RTHI3			RTHI2			LTHI1			LTHI4			LTHI3			LTHI2			FHD			LBHD			RBHD			C7			T10			CLAV			LSHO			RSHO			LRAD			LUL			LRFIN			RRAD			RUL			RUFIN			LDUPA			LMUPA			LUUPA			RDUPA			RUUPA			RMUPA			
		X1	Y1	Z1	X2	Y2	Z2	X3	Y3	Z3	X4	Y4	Z4	X5	Y5	Z5	X6	Y6	Z6	X7	Y7	Z7	X8	Y8	Z8	X9	Y9	Z9	X10	Y10	Z10	X11	Y11	Z11	X12	Y12	Z12	X13	Y13	Z13	X14	Y14	Z14	X15	Y15	Z15	X16	Y16	Z16	X17	Y17	Z17	X18	Y18	Z18	X19	Y19	Z19	X20	Y20	Z20	X21	Y21	Z21	X22	Y22	Z22	X23	Y23	Z23	X24	Y24	Z24	X25	Y25	Z25	X26	Y26	Z26	X27	Y27	Z27	X28	Y28	Z28	X29	Y29	Z29	X30	Y30	Z30	X31	Y31	Z31	X32	Y32	Z32	X33	Y33	Z33	X34	Y34	Z34	X35	Y35	Z35	X36	Y36	Z36	X37	Y37	Z37	X38	Y38	Z38	X39	Y39	Z39	X40	Y40	Z40	X41	Y41	Z41	X42	Y42	Z42	X43	Y43	Z43	X44	Y44	Z44	X45	Y45	Z45	X46	Y46	Z46	X47	Y47	Z47	X48	Y48	Z48	X49	Y49	Z49	X50	Y50	Z50	X51	Y51	Z51	X52	Y52	Z52	
1414	7.065	443.29645	694.90625	-956.81934	443.9455	697.33337	-898.38	426.82025	702.43945	-927.13513	224.83138	249.37856	198.61629	131.97011	242.66145	-2019.9227	291.14258	35.213047	-1366.3148	124.63423	42.74823	-1469.2839	190.50124	30.683636	-1519.4587	153.22601	42.554207	-1499.2578	330.86926	47.365814	-484.81042	162.68178	48.840542	-392.39807	225.35558	28.813972	-341.27151	187.144	45.173084	-361.54999	268.11642	73.304695	-497.38309	306.43152	73.133911	-424.90067	301.04443	213.04001	-457.0296	275.85406	272.86935	-450.26642	313.86115	271.75327	-484.43872	301.60034	310.58774	-484.24109	236.71577	63.265301	-1359.2738	275.60205	73.939255	-1424.1637	227.87935	315.27667	-1388.3749	271.84332	306.10287	-1363.8958	248.43588	253.17317	-1395.1722	432.39508	595.87128	-1131.7133	324.10767	544.87793	-1219.5519	353.04855	503.01279	-1227.4513	381.90305	546.94073	-1187.5635	453.38708	595.60742	-728.48254	383.94809	512.24939	-630.47736	348.56982	550.19257	-629.43994	396.897	562.22565	-671.59058	-81.497406	1081.6396	-822.65936	30.801712	1092.387	-832.40283	45.338444	1079.5826	-956.67908	83.776115	937.82581	-897.23083	385.17447	729.28302	-922.55908	35.623123	808.55872	-903.2746	74.189995	853.88208	-725.16803	39.480789	841.29944	-1053.0023	143.37115	319.9108	-686.2348	139.80283	318.84277	-645.59393	155.8577	232.8028	-704.07739	124.40443	315.63058	-1130.6741	115.74204	314.25967	-1178.4429	136.60326	227.06416	-1119.9315	93.673203	626.92126	-708.10931	120.29984	609.28601	-670.23792	101.59452	684.05786	-688.03387	75.47522	588.46722	-1072.146	68.722725	662.48956	-1101.2269	81.271965	604.05658	-1119.3721
1415	7.07	443.00455	695.33716	-957.10168	443.87732	697.95587	-898.44958	426.50531	702.81854	-927.41534	224.91309	249.37509	198.60445	132.11613	242.62997	-2019.9049	291.1033	35.219799	-1366.3777	124.62455	42.75861	-1469.3733	190.48505	30.722277	-1519.54	153.19528	42.592499	-1499.344	330.81146	47.361969	-484.82837	162.64948	48.878159	-392.38287	225.34161	28.837391	-341.26779	187.12421	45.186958	-361.53439	268.04507	73.227715	-497.43887	306.34512	73.159935	-424.96481	300.92383	213.03775	-457.25421	276.31171	273.33173	-450.2536	313.67664	271.69928	-484.74438	301.46692	310.5639	-484.59109	236.64813	63.262268	-1359.3168	275.49026	73.951332	-1424.1958	227.72545	315.25342	-1388.4884	271.53503	305.88818	-1363.8147	248.31482	253.15642	-1395.2677	432.03625	596.37018	-1132.049	323.66165	545.16852	-1219.8308	352.45218	503.63898	-1228.2107	381.51743	547.44104	-1187.9651	453.14685	595.88898	-728.81757	383.74231	512.45093	-630.84637	348.25089	550.30182	-629.84747	396.63623	562.44385	-671.96619	-82.353081	1081.2924	-822.47424	29.951296	1092.3151	-832.18915	44.525749	1079.6788	-956.53918	83.448822	937.83038	-897.06873	384.87906	729.58154	-922.74707	35.328575	808.46838	-903.23444	73.878532	853.89142	-725.11383	38.993324	841.23608	-1052.9407	143.48058	319.98773	-686.26074	139.96516	318.9346	-645.61371	155.94807	232.87581	-704.07941	124.49274	315.66388	-1130.6602	115.80743	314.26804	-1178.4304	136.70827	227.1073	-1119.9359	93.664406	626.97473	-708.00891	120.33731	609.38098	-670.17712	101.57033	684.10742	-688.01477	75.314278	588.46069	-1072.0454	68.419151	662.46295	-1101.1276	81.021187	603.99231	-1119.3003
1416	7.075	442.6777	695.78009	-957.40472	443.31577	698.06018	-898.94006	426.19897	703.21503	-927.68909	224.96504	249.39284	198.60764	132.28369	242.59648	-2019.9	291.05151	35.222706	-1366.4349	124.5848	42.748417	-1469.4637	189.84984	31.051977	-1519.8146	153.16068	42.62043	-1499.4357	330.77942	47.362263	-484.85434	162.62906	48.893715	-392.35144	225.34319	28.850975	-341.23715	187.10506	45.19989	-361.51431	267.97043	73.147705	-497.48453	306.25345	73.177711	-425.03769	300.75635	213.01906	-457.50381	275.56732	272.87457	-450.89716	313.59027	271.64581	-485.00378	301.36526	310.52969	-484.89603	236.58748	63.24403	-1359.3456	275.40692	73.952194	-1424.2292	227.59796	315.23349	-1388.5966	271.37054	305.87704	-1363.9247	248.16866	253.12836	-1395.3749	431.69284	596.87988	-1132.4022	323.24576	545.46283	-1220.1263	352.39926	503.80313	-1228.1681	381.15454	547.77222	-1188.3372	452.90305	596.16803	-729.14905	383.54144	512.64783	-631.19342	347.94019	550.41901	-630.27032	396.3479	562.63672	-672.32458	-83.17289	1080.8907	-822.33063	29.105995	1092.2657	-832.02295	43.705006	1079.7334	-956.30219	82.977066	937.68628	-897.15039	384.57425	729.89099	-922.93512	34.996006	808.37231	-903.20544	73.555054	853.89594	-725.07904	38.530495	841.17334	-1052.8799	143.59868	320.05826	-686.28278	140.0994	319.01398	-645.63159	156.03729	232.94151	-704.06458	124.59256	315.69171	-1130.6426	115.90069	314.30444	-1178.4171	136.84363	227.15273	-1119.9355	93.636765	627.00647	-707.8938	120.41494	609.46161	-670.05676	101.5771	684.19495	-687.96222	75.154213	588.46045	-1071.917	68.093681	662.43298	-1101.0338	80.753014	603.95258	-1119.194
1417	7.08	442.37845	696.21332	-957.69128	443.17386	698.61279	-899.14062	426.03259	703.73157	-928.16339	224.97197	249.44508	198.79494	132.50197	242.66173	-2019.8331	291.01941	35.226936	-1366.4883	124.55688	42.755081	-1469.5566	189.83255	31.077864	-1519.8823	153.14134	42.646931	-1499.5254	330.71918	47.355259	-484.87656	162.6225	48.9226	-392.31567	225.33949	28.857182	-341.21637	187.10513	45.204292	-361.47626	267.9093	73.077919	-497.53998	306.19373	73.208755	-425.10635	300.59991	212.96129	-457.72836	276.07288	273.34155	-450.83606	313.65649	271.50613	-485.18335	301.25955	310.48578	-485.22076	236.52245	63.229813	-1359.3871	275.32584	73.958557	-1424.2778	227.27423	315.50848	-1388.5	271.24728	305.87869	-1364.0568	248.07301	253.11884	-1395.494	431.39182	597.36853	-1132.7614	322.84216	545.76923	-1220.4249	351.8168	504.39722	-1228.9208	380.77191	548.28009	-1188.7134	452.68509	596.4649	-729.4917	383.35492	512.83691	-631.55194	347.66269	550.55267	-630.65521	396.04599	562.86188	-672.69336	-84.004753	1080.4994	-822.12598	28.269728	1092.2098	-831.8197	42.904922	1079.804	-956.11249	82.343658	937.68579	-897.10248	384.2764	730.21661	-923.11877	34.669582	808.27289	-903.21387	73.26207	853.89276	-725.04712	38.043896	841.12408	-1052.8359	143.70885	320.11609	-686.30444	140.23082	319.0795	-645.63501	156.13565	233.00447	-704.06104	124.72433	315.72156	-1130.6188	116.0042	314.3291	-1178.3981	136.96815	227.20399	-1119.92	93.596306	627.04584	-707.76208	120.44405	609.54352	-669.95557	101.53087	684.25189	-687.89038	75.018158	588.41742	-1071.761	67.775108	662.36182	-1100.9037	80.485649	603.91571	-1119.0687
1418	7.085	442.12418	696.63757	-957.94342	443.22382	699.10504	-899.4505	425.5748	704.00293	-928.21429	225.05264	249.44725	198.78674	132.60487	242.57031	-2019.9049	290.987	35.236759	-1366.5227	124.50431	42.76236	-1469.6536	189.86475	31.098246	-1519.9636	153.13336	42.680199	-1499.6212	330.70203	47.360321	-484.8663	162.59949	48.94521	-392.26462	225.32065	28.881119	-341.18079	187.08562	45.215984	-361.45096	267.8414	73.026749	-497.57086	306.14224	73.245316	-425.14832	300.53754	212.9736	-457.91724	275.96127	273.31314	-451.14728	313.58487	271.43152	-485.47897	301.19159	310.43512	-485.51227	236.45337	63.222595	-1359.4388	275.23291	73.951729	-1424.3032	227.17926	315.48856	-1388.6531	271.13409	305.85608	-1364.1796	248.15424	253.08621	-1395.5248	431.10794	597.89911	-1133.1017	322.50818	546.08588	-1220.7415	351.56329	504.77518	-1229.2869	380.43185	548.64044	-1189.1191	452.42004	596.74091	-729.84845	383.13492	513.02679	-631.90338	347.39874	550.67908	-631.04358	395.78928	563.07074	-673.09076	-84.805916	1080.1034	-821.95581	27.446304	1092.1261	-831.62836	42.146984	1079.8372	-955.91211	81.831642	937.6106	-897.07129	383.98633	730.54462	-923.31482	34.31826	808.1698	-903.2262	72.971779	853.87598	-725.02826	37.584709	841.06512	-1052.7926	143.80292	320.17908	-686.3064	140.347	319.13535	-645.64136	156.18994	233.07443	-704.08398	124.82335	315.7489	-1130.5966	116.11042	314.36166	-1178.3685	136.91437	227.20822	-1119.8896	93.520851	627.03217	-707.60895	120.42861	609.60175	-669.8302	101.33458	684.24445	-687.65924	74.882347	588.39905	-1071.6115	67.474854	662.31738	-1100.7738	80.244331	603.86023	-1118.9404
1419	7.09	441.81656	697.10883	-958.23944	442.55927	699.36932	-899.63257	425.27969	704.42029	-928.49438	225.2222	249.43513	198.60426	132.74876	242.5675	-2019.9115	290.95776	35.240486	-1366.5765	124.49114	42.764069	-1469.7759	189.87961	31.125883	-1520.0315	153.15041	42.699318	-1499.6991	330.66772	47.358963	-484.86963	162.58228	48.949024	-392.22043	225.32666	28.893074	-341.15585	187.08771	45.212078	-361.41095	267.79373	72.970024	-497.60043	306.09329	73.289009	-425.17206	300.48685	212.92619	-458.0914	275.91107	273.30832	-451.41202	313.52884	271.37314	-485.71735	301.13031	310.37601	-485.84924	236.39626	63.20055	-1359.4703	275.13309	73.962822	-1424.3385	227.24136	315.20071	-1389.0222	271.01605	305.84494	-1364.3064	248.39452	253.06877	-1395.7494	430.83145	598.41821	-1133.4344	322.21725	546.40845	-1221.0583	351.55722	504.88943	-1229.2609	380.17447	549.08417	-1189.4692	452.18979	597.03571	-730.2019	382.93777	513.18835	-632.26648	347.13123	550.78723	-631.44202	395.54205	563.28906	-673.448	-85.607559	1079.702	-821.80963	26.618265	1091.9971	-831.46869	41.38271	1079.8143	-955.68158	81.215965	937.44873	-897.10071	383.69427	730.88678	-923.51978	33.983055	808.05017	-903.23712	72.640869	853.8576	-725.0177	37.149883	841.02057	-1052.78	143.90161	320.22363	-686.30328	140.46347	319.18719	-645.64752	156.28876	233.12996	-704.06061	124.94029	315.76837	-1130.5841	116.23656	314.39725	-1178.3341	137.19803	227.30769	-1119.9053	93.385643	627.0387	-707.49445	120.3892	609.62799	-669.75922	101.26533	684.26648	-687.70557	74.737221	588.37256	-1071.4741	67.202942	662.27026	-1100.6604	79.95871	603.83539	-1118.8387
